<?xml version="1.0" standalone="no"?><!DOCTYPE svg PUBLIC "-//W3C//DTD SVG 1.1//EN" "http://www.w3.org/Graphics/SVG/1.1/DTD/svg11.dtd"><svg t="1680493366102" class="icon" viewBox="0 0 1024 1024" version="1.1" xmlns="http://www.w3.org/2000/svg" p-id="2798" xmlns:xlink="http://www.w3.org/1999/xlink" width="200" height="200"><path d="M276.8 449.28C193.6 455.04 128 523.52 128 608c0 88.3264 71.6736 160 160 160l416 0c105.92 0 192-86.0736 192-192 0-98.88-74.88-180.48-171.2-190.72C684.8 308.48 604.48 256 512 256 395.5136 256 298.5472 338.88 276.8 449.28L276.8 449.28zM288 704c-53.1264 0-96-42.8736-96-96s42.8736-96 96-96l48 0 0-16C336 398.72 414.7136 320 512 320c80.6336 0 148.16 54.0864 169.28 128L704 448c70.72 0 128 57.28 128 128 0 70.7264-57.28 128-128 128L288 704 288 704zM288 704M460.8 601.6l102.4 0 0 102.4-102.4 0 0-102.4ZM416 604.8768 512 502.4768 608 604.8768Z" fill="#272636" p-id="2799"></path></svg>