<?xml version="1.0" standalone="no"?><!DOCTYPE svg PUBLIC "-//W3C//DTD SVG 1.1//EN" "http://www.w3.org/Graphics/SVG/1.1/DTD/svg11.dtd"><svg t="1680507084416" class="icon" viewBox="0 0 1024 1024" version="1.1" xmlns="http://www.w3.org/2000/svg" p-id="6445" xmlns:xlink="http://www.w3.org/1999/xlink" width="200" height="200"><path d="M512 675.84c-25.6 0-46.08 20.48-46.08 46.08s20.48 46.08 46.08 46.08 46.08-20.48 46.08-46.08-20.48-46.08-46.08-46.08z" fill="" p-id="6446"></path><path d="M942.08 839.68c30.72-51.2 30.72-107.52 0-158.72L655.36 179.2c-30.72-51.2-81.92-81.92-138.24-81.92s-107.52 30.72-138.24 81.92l-291.84 501.76c-30.72 51.2-30.72 112.64 0 158.72 30.72 51.2 81.92 76.8 138.24 76.8h578.56c56.32 5.12 107.52-25.6 138.24-76.8z m-66.56-35.84c-15.36 25.6-46.08 46.08-76.8 46.08h-578.56c-30.72 0-61.44-15.36-76.8-40.96-15.36-25.6-15.36-61.44 0-87.04l291.84-501.76c15.36-25.6 46.08-46.08 76.8-46.08s61.44 15.36 76.8 46.08l286.72 501.76c20.48 20.48 20.48 56.32 0 81.92z" fill="" p-id="6447"></path><path d="M501.76 353.28c-20.48 5.12-35.84 25.6-35.84 51.2 0 15.36 0 30.72 5.12 46.08 5.12 56.32 5.12 107.52 10.24 163.84 0 20.48 15.36 30.72 35.84 30.72 20.48 0 35.84-15.36 35.84-35.84V573.44c0-35.84 5.12-71.68 5.12-107.52 0-25.6 5.12-46.08 5.12-71.68 0-10.24 0-15.36-5.12-25.6-10.24-10.24-35.84-20.48-56.32-15.36z" fill="" p-id="6448"></path></svg>