<?xml version="1.0" standalone="no"?><!DOCTYPE svg PUBLIC "-//W3C//DTD SVG 1.1//EN" "http://www.w3.org/Graphics/SVG/1.1/DTD/svg11.dtd"><svg t="1680503971254" class="icon" viewBox="0 0 1024 1024" version="1.1" xmlns="http://www.w3.org/2000/svg" p-id="5291" xmlns:xlink="http://www.w3.org/1999/xlink" width="200" height="200"><path d="M781.66 874.69c-3.11 0-6.31 0-9.47-0.47-329.08-33.1-589.32-293.38-622.38-622.46a90.321 90.321 0 0 1 23.08-70.27 98.12 98.12 0 0 1 72.79-32.13h117.8c42.75-0.05 80.72 27.31 94.21 67.88l38.4 114.56c11.96 35.72 2.58 75.13-24.19 101.63l-18.43 18.43c30.66 47.6 71.27 88 119.04 118.4l18.09-18.13c26.61-26.57 65.95-35.85 101.63-23.98l114.56 38.4c40.5 13.46 67.84 51.32 67.88 93.99v117.8c0.83 52.26-40.76 95.34-93.01 96.35zM245.68 215.57a30.69 30.69 0 0 0-23.21 9.81 25.988 25.988 0 0 0-6.78 19.93c30.06 297.71 265.49 533.14 563.2 563.2h2.43c7.12-0.1 13.91-3.07 18.82-8.23 5.59-5.9 8.65-13.76 8.53-21.89V660.54c-0.01-14.25-9.13-26.9-22.66-31.4l-114.56-38.19a33.11 33.11 0 0 0-33.88 7.98l-18.3 18.35a66.463 66.463 0 0 1-46.68 19.37 64.545 64.545 0 0 1-36.65-11.35 457.869 457.869 0 0 1-138.2-137.56c-17.01-26.04-13.42-60.44 8.62-82.39l18.73-18.73c8.91-8.84 11.99-22 7.94-33.88l-38.14-114.52c-4.46-13.53-17.11-22.67-31.36-22.66l-117.85 0.01z m595.88 198.62c-18.28-0.02-33.09-14.83-33.11-33.11-0.09-91.39-74.16-165.45-165.55-165.55-18.29 0-33.11-14.82-33.11-33.11s14.82-33.11 33.11-33.11c127.94 0.14 231.62 103.82 231.77 231.77-0.02 18.27-14.83 33.08-33.11 33.11z m-132.26 0c-18.28-0.02-33.09-14.83-33.11-33.11-0.02-18.28-14.83-33.09-33.11-33.11-18.3 0-33.13-14.83-33.13-33.13 0-18.3 14.83-33.13 33.13-33.13 54.85 0.05 99.3 44.52 99.33 99.37-0.02 18.31-14.89 33.13-33.19 33.11h-0.09 0.17z" p-id="5292"></path></svg>