<?xml version="1.0" standalone="no"?><!DOCTYPE svg PUBLIC "-//W3C//DTD SVG 1.1//EN" "http://www.w3.org/Graphics/SVG/1.1/DTD/svg11.dtd"><svg t="1680501402220" class="icon" viewBox="0 0 1024 1024" version="1.1" xmlns="http://www.w3.org/2000/svg" p-id="2952" xmlns:xlink="http://www.w3.org/1999/xlink" width="200" height="200"><path d="M320.2 127.06m32 0l0 0q32 0 32 32l0 162.96q0 32-32 32l0 0q-32 0-32-32l0-162.96q0-32 32-32Z" fill="#999999" p-id="2953"></path><path d="M640.37 127.06m32 0l0 0q32 0 32 32l0 162.96q0 32-32 32l0 0q-32 0-32-32l0-162.96q0-32 32-32Z" fill="#999999" p-id="2954"></path><path d="M832.23 384.32v64H192.38v-64z" fill="#999999" p-id="2955"></path><path d="M768.88 256.25H255.31A127.35 127.35 0 0 0 128 383.6v384.5a127.35 127.35 0 0 0 127.31 127.35h321.55a31.34 31.34 0 0 0 31.35-31.35v-1.29a31.35 31.35 0 0 0-31.35-31.36H255.31A63.35 63.35 0 0 1 192 768.1V383.6a63.35 63.35 0 0 1 63.35-63.35h513.53a63.35 63.35 0 0 1 63.35 63.35v415.85a32 32 0 0 1-15.91 27.66 31.8 31.8 0 0 0-16.06 27.36V856c0 23.78 25.54 39.07 46.34 27.54a96.07 96.07 0 0 0 49.63-84V383.6a127.35 127.35 0 0 0-127.35-127.35z" fill="#999999" p-id="2956"></path></svg>