<?xml version="1.0" standalone="no"?><!DOCTYPE svg PUBLIC "-//W3C//DTD SVG 1.1//EN" "http://www.w3.org/Graphics/SVG/1.1/DTD/svg11.dtd"><svg t="1684200036771" class="icon" viewBox="0 0 1024 1024" version="1.1" xmlns="http://www.w3.org/2000/svg" p-id="6047" xmlns:xlink="http://www.w3.org/1999/xlink" width="200" height="200"><path d="M593.361455 837.678545a28.020364 28.020364 0 0 1 10.193454 38.260364 105.797818 105.797818 0 0 1-183.016727 0 28.020364 28.020364 0 1 1 48.453818-28.113454 49.803636 49.803636 0 0 0 86.109091 0 28.020364 28.020364 0 0 1 38.260364-10.14691zM109.381818 109.381818a31.976727 31.976727 0 0 1 45.242182 0L914.618182 869.376a31.976727 31.976727 0 1 1-45.242182 45.242182L109.381818 154.624a31.976727 31.976727 0 0 1 0-45.242182z m141.312 251.578182L304.872727 415.138909c-2.792727 42.542545-8.610909 81.547636-17.175272 117.294546-10.565818 44.125091-25.134545 82.152727-42.728728 114.408727a350.952727 350.952727 0 0 1-12.8 21.643636l-6.609454 9.867637 342.481454-0.046546 55.994182 55.994182H162.071273c-27.648 0-38.539636-35.653818-15.778909-51.106909a241.803636 241.803636 0 0 0 49.524363-63.162182c15.220364-27.927273 27.973818-61.300364 37.422546-100.724364 11.077818-45.986909 17.175273-98.629818 17.454545-158.347636z m261.352727-265.960727c144.337455 0 261.352727 117.015273 261.352728 261.352727 0 61.626182 6.097455 115.805091 17.454545 162.955636 9.448727 39.424 22.248727 72.797091 37.422546 100.724364 11.636364 21.224727 23.831273 37.934545 35.84 50.641455 4.049455 4.235636 7.68 7.633455 10.845091 10.24l1.396363 1.163636 1.117091 0.837818 0.325818 0.232727 3.584 2.839273a28.066909 28.066909 0 0 1-14.615272 47.941818l-4.701091 0.418909-17.454546-0.046545-55.994182-55.994182h9.914182a338.850909 338.850909 0 0 1-19.409454-31.464727c-17.594182-32.256-32.116364-70.283636-42.728728-114.455273-12.381091-51.525818-18.990545-110.08-18.990545-176.034909a205.312 205.312 0 0 0-371.479273-120.692364l-40.029091-39.982545a260.887273 260.887273 0 0 1 206.196364-100.677818z" fill="#333333" p-id="6048"></path></svg>