<?xml version="1.0" standalone="no"?><!DOCTYPE svg PUBLIC "-//W3C//DTD SVG 1.1//EN" "http://www.w3.org/Graphics/SVG/1.1/DTD/svg11.dtd"><svg t="1684200029676" class="icon" viewBox="0 0 1024 1024" version="1.1" xmlns="http://www.w3.org/2000/svg" p-id="5888" xmlns:xlink="http://www.w3.org/1999/xlink" width="200" height="200"><path d="M555.101091 847.825455a28.020364 28.020364 0 0 1 48.407273 28.113454 105.797818 105.797818 0 0 1-182.923637 0 28.020364 28.020364 0 1 1 48.407273-28.113454 49.803636 49.803636 0 0 0 86.109091 0z m-43.054546-752.826182c144.337455 0 261.352727 117.015273 261.352728 261.352727 0 61.626182 6.097455 115.805091 17.454545 162.955636 9.448727 39.424 22.248727 72.797091 37.422546 100.724364 11.636364 21.224727 23.831273 37.934545 35.84 50.641455a128.418909 128.418909 0 0 0 13.358545 12.241454l0.186182 0.186182 0.186182 0.093091-0.046546-0.046546 3.584 2.839273a28.066909 28.066909 0 0 1-14.615272 47.941818l-4.701091 0.418909H161.978182c-27.601455 0-38.493091-35.700364-15.732364-51.2a241.803636 241.803636 0 0 0 49.524364-63.162181c15.220364-27.880727 27.973818-61.253818 37.422545-100.677819 11.357091-47.150545 17.501091-101.329455 17.501091-162.955636C250.740364 212.014545 367.709091 94.952727 512 94.952727z m0 55.994182A205.312 205.312 0 0 0 306.734545 356.352c0 65.954909-6.656 124.509091-19.03709 176.034909-10.565818 44.171636-25.134545 82.199273-42.728728 114.455273a338.850909 338.850909 0 0 1-19.409454 31.511273h572.974545a338.850909 338.850909 0 0 1-19.409454-31.511273c-17.594182-32.256-32.116364-70.283636-42.728728-114.455273-12.381091-51.525818-18.990545-110.08-18.990545-176.034909A205.312 205.312 0 0 0 512 150.993455z" fill="#333333" p-id="5889"></path></svg>